<?xml version="1.0" standalone="no"?>
<!DOCTYPE svg PUBLIC "-//W3C//DTD SVG 20010904//EN"
 "http://www.w3.org/TR/2001/REC-SVG-20010904/DTD/svg10.dtd">
<svg version="1.0" xmlns="http://www.w3.org/2000/svg"
 width="31.000000pt" height="25.000000pt" viewBox="0 0 31.000000 25.000000"
 preserveAspectRatio="xMidYMid meet">

<g transform="translate(0.000000,25.000000) scale(0.100000,-0.100000)"
fill="#000000" stroke="none">
<path d="M0 141 c0 -60 3 -116 6 -125 5 -14 28 -16 155 -16 l149 0 -1 43 c-1
39 -2 40 -9 12 -4 -16 -8 -22 -9 -12 0 10 -5 16 -10 12 -6 -3 -8 -14 -6 -25 4
-19 -2 -20 -116 -20 -65 0 -119 2 -119 5 0 7 68 75 75 75 3 0 5 -6 5 -14 0 -8
6 -16 14 -19 11 -5 11 -1 -1 24 -17 35 -9 76 12 59 8 -6 24 -10 37 -7 20 4 20
4 -4 6 -39 2 -35 19 5 19 17 0 44 3 60 5 15 2 27 0 27 -5 0 -5 5 -6 10 -3 16
10 12 23 -10 30 -12 4 -27 1 -35 -5 -8 -7 -26 -9 -44 -5 -17 4 -36 3 -43 -1
-28 -18 -35 -12 -28 21 4 18 10 38 14 44 5 8 -14 11 -63 11 l-71 0 0 -109z
m101 -18 c-12 -20 -14 -14 -5 12 4 9 9 14 11 11 3 -2 0 -13 -6 -23z m-21 -39
c-8 -8 -23 -20 -34 -25 -13 -7 -9 -1 9 15 34 29 43 33 25 10z"/>
<path d="M291 233 c7 -10 15 -20 16 -22 2 -2 3 5 3 17 0 14 -6 22 -16 22 -14
0 -15 -3 -3 -17z"/>
</g>
</svg>
