<svg xmlns="http://www.w3.org/2000/svg" xmlns:xlink="http://www.w3.org/1999/xlink" xmlns:lucid="lucid" width="1653" height="765"><g transform="translate(-100 -175)" lucid:page-tab-id="0_0"><path d="M0 0h1760v1360H0z" fill="#fff"/><path d="M320 726c0-3.3 2.7-6 6-6h548c3.3 0 6 2.7 6 6v68c0 3.3-2.7 6-6 6H326c-3.3 0-6-2.7-6-6z" stroke="#5e5e5e" stroke-width="3" fill="#fff"/><use xlink:href="#a" transform="matrix(1,0,0,1,332,732) translate(202.6604938271605 31.77777777777778)"/><path d="M320 646c0-3.3 2.7-6 6-6h548c3.3 0 6 2.7 6 6v68c0 3.3-2.7 6-6 6H326c-3.3 0-6-2.7-6-6z" stroke="#5e5e5e" stroke-width="3" fill="#fff"/><use xlink:href="#b" transform="matrix(1,0,0,1,332,652) translate(213.0925925925926 31.77777777777778)"/><use xlink:href="#c" transform="matrix(1,0,0,1,332,652) translate(290.80864197530866 31.77777777777778)"/><path d="M320 566c0-3.3 2.7-6 6-6h548c3.3 0 6 2.7 6 6v68c0 3.3-2.7 6-6 6H326c-3.3 0-6-2.7-6-6z" stroke="#5e5e5e" stroke-width="3" fill="#fff"/><use xlink:href="#d" transform="matrix(1,0,0,1,332,572) translate(215.03703703703704 31.77777777777778)"/><path d="M300 356c0-3.3 2.7-6 6-6h588c3.3 0 6 2.7 6 6v198c0 3.3-2.7 6-6 6H306c-3.3 0-6-2.7-6-6z" stroke="#5e5e5e" stroke-width="3" fill="#c1e4f7"/><path d="M620 466c0-3.3 2.7-6 6-6h248c3.3 0 6 2.7 6 6v68c0 3.3-2.7 6-6 6H626c-3.3 0-6-2.7-6-6z" stroke="#5e5e5e" stroke-width="3" fill="#fff"/><use xlink:href="#e" transform="matrix(1,0,0,1,632,472) translate(72.32098765432099 31.77777777777778)"/><path d="M620 286c0-3.3 2.7-6 6-6h248c3.3 0 6 2.7 6 6v48c0 3.3-2.7 6-6 6H626c-3.3 0-6-2.7-6-6z" stroke="#5e5e5e" stroke-width="3" fill="#b391b5"/><use xlink:href="#f" transform="matrix(1,0,0,1,632,292) translate(43.40123456790124 22.27777777777778)"/><path d="M620 366c0-3.3 2.7-6 6-6h248c3.3 0 6 2.7 6 6v68c0 3.3-2.7 6-6 6H626c-3.3 0-6-2.7-6-6z" stroke="#5e5e5e" stroke-width="3" fill="#fff"/><use xlink:href="#g" transform="matrix(1,0,0,1,632,372) translate(78.55555555555556 31.77777777777778)"/><path d="M320 466c0-3.3 2.7-6 6-6h248c3.3 0 6 2.7 6 6v68c0 3.3-2.7 6-6 6H326c-3.3 0-6-2.7-6-6z" stroke="#5e5e5e" stroke-width="3" fill="#fff"/><use xlink:href="#e" transform="matrix(1,0,0,1,332,472) translate(72.32098765432099 31.77777777777778)"/><path d="M320 286c0-3.3 2.7-6 6-6h248c3.3 0 6 2.7 6 6v48c0 3.3-2.7 6-6 6H326c-3.3 0-6-2.7-6-6z" stroke="#5e5e5e" stroke-width="3" fill="#fcc438"/><use xlink:href="#h" transform="matrix(1,0,0,1,332,292) translate(71.73456790123456 22.27777777777778)"/><path d="M980 726c0-3.3 2.7-6 6-6h548c3.3 0 6 2.7 6 6v68c0 3.3-2.7 6-6 6H986c-3.3 0-6-2.7-6-6z" stroke="#5e5e5e" stroke-width="3" fill="#fff"/><use xlink:href="#a" transform="matrix(1,0,0,1,992,732) translate(202.6604938271605 31.77777777777778)"/><path d="M980 646c0-3.3 2.7-6 6-6h548c3.3 0 6 2.7 6 6v68c0 3.3-2.7 6-6 6H986c-3.3 0-6-2.7-6-6z" stroke="#5e5e5e" stroke-width="3" fill="#fff"/><use xlink:href="#b" transform="matrix(1,0,0,1,992,652) translate(213.0925925925926 31.77777777777778)"/><use xlink:href="#c" transform="matrix(1,0,0,1,992,652) translate(290.80864197530866 31.77777777777778)"/><path d="M980 566c0-3.3 2.7-6 6-6h548c3.3 0 6 2.7 6 6v68c0 3.3-2.7 6-6 6H986c-3.3 0-6-2.7-6-6z" stroke="#5e5e5e" stroke-width="3" fill="#c1e4f7"/><use xlink:href="#i" transform="matrix(1,0,0,1,992,572) translate(232.87654320987656 31.77777777777778)"/><path d="M955.75 446c0-3.3 2.7-6 6-6h588c3.3 0 6 2.7 6 6v108c0 3.3-2.7 6-6 6h-588c-3.3 0-6-2.7-6-6z" stroke="#5e5e5e" stroke-width="3" fill="#c1e4f7"/><path d="M1280 376c0-3.3 2.7-6 6-6h248c3.3 0 6 2.7 6 6v48c0 3.3-2.7 6-6 6h-248c-3.3 0-6-2.7-6-6z" stroke="#5e5e5e" stroke-width="3" fill="#b391b5"/><use xlink:href="#f" transform="matrix(1,0,0,1,1292,382) translate(43.40123456790124 22.27777777777778)"/><path d="M1280 466c0-3.3 2.7-6 6-6h248c3.3 0 6 2.7 6 6v68c0 3.3-2.7 6-6 6h-248c-3.3 0-6-2.7-6-6z" stroke="#5e5e5e" stroke-width="3" fill="#fff"/><use xlink:href="#g" transform="matrix(1,0,0,1,1292,472) translate(78.55555555555556 31.77777777777778)"/><path d="M980 376c0-3.3 2.7-6 6-6h248c3.3 0 6 2.7 6 6v48c0 3.3-2.7 6-6 6H986c-3.3 0-6-2.7-6-6z" stroke="#5e5e5e" stroke-width="3" fill="#fcc438"/><use xlink:href="#h" transform="matrix(1,0,0,1,992,382) translate(71.73456790123456 22.27777777777778)"/><path d="M930 360.75c.4 0 .75.34.75.75v347c0 .4-.34.75-.75.75-.4 0-.75-.34-.75-.75v-347c0-.4.34-.75.75-.75z" stroke="#5e5e5e" stroke-width="1.5" fill="none"/><path d="M140 286c0-3.3 2.7-6 6-6h128c3.3 0 6 2.7 6 6v248c0 3.3-2.7 6-6 6H146c-3.3 0-6-2.7-6-6z" fill="none"/><path d="M280 540c-5.52 0-10-4.48-10-10V420c0-5.52-4.48-10-10-10 5.52 0 10-4.48 10-10V290c0-5.52 4.48-10 10-10" stroke="#5e5e5e" stroke-width="3" fill="none"/><use xlink:href="#j" transform="matrix(1,0,0,1,145,285) translate(31.41975308641976 116.11111111111111)"/><use xlink:href="#k" transform="matrix(1,0,0,1,145,285) translate(11.29629629629629 142.7777777777778)"/><path d="M1580 386c0-3.3 2.7-6 6-6h68c3.3 0 6 2.7 6 6v148c0 3.3-2.7 6-6 6h-68c-3.3 0-6-2.7-6-6z" fill="none"/><path d="M1580 540c5.52 0 10-4.48 10-10v-60c0-5.52 4.48-10 10-10-5.52 0-10-4.48-10-10v-60c0-5.52-4.48-10-10-10" stroke="#5e5e5e" stroke-width="3" fill="none"/><use xlink:href="#l" transform="matrix(1,0,0,1,1615,385) translate(0 79.94444444444444)"/><path d="M560 220.67c0-3.32 2.7-6 6-6h808c3.3 0 6 2.68 6 6V254c0 3.3-2.7 6-6 6H566c-3.3 0-6-2.7-6-6z" stroke="#5e5e5e" stroke-opacity="0" stroke-width="3" fill="#f1f1f1"/><use xlink:href="#m" transform="matrix(1,0,0,1,572,226.66666666666669) translate(55.83950617283949 17.77777777777778)"/><use xlink:href="#n" transform="matrix(1,0,0,1,572,226.66666666666669) translate(74.35802469135801 17.77777777777778)"/><use xlink:href="#o" transform="matrix(1,0,0,1,572,226.66666666666669) translate(232.1358024691358 17.77777777777778)"/><use xlink:href="#p" transform="matrix(1,0,0,1,572,226.66666666666669) translate(359.1728395061728 17.77777777777778)"/><use xlink:href="#q" transform="matrix(1,0,0,1,572,226.66666666666669) translate(399.85185185185185 17.77777777777778)"/><use xlink:href="#r" transform="matrix(1,0,0,1,572,226.66666666666669) translate(472.5679012345679 17.77777777777778)"/><use xlink:href="#s" transform="matrix(1,0,0,1,572,226.66666666666669) translate(507.0740740740741 17.77777777777778)"/><use xlink:href="#t" transform="matrix(1,0,0,1,572,226.66666666666669) translate(561.395061728395 17.77777777777778)"/><use xlink:href="#u" transform="matrix(1,0,0,1,572,226.66666666666669) translate(637.8148148148148 17.77777777777778)"/><path d="M320 826c0-3.3 2.7-6 6-6h668c3.3 0 6 2.7 6 6v68c0 3.3-2.7 6-6 6H326c-3.3 0-6-2.7-6-6z" stroke="#5e5e5e" stroke-opacity="0" stroke-width="3" fill="#f1f1f1"/><g><use xlink:href="#v" transform="matrix(1,0,0,1,332,832) translate(11.180246913580277 17.72222222222222)"/><use xlink:href="#w" transform="matrix(1,0,0,1,332,832) translate(36.464197530864226 17.72222222222222)"/><use xlink:href="#x" transform="matrix(1,0,0,1,332,832) translate(99.36913580246916 17.72222222222222)"/><use xlink:href="#y" transform="matrix(1,0,0,1,332,832) translate(112.22222222222224 17.72222222222222)"/><use xlink:href="#z" transform="matrix(1,0,0,1,332,832) translate(122.96296296296299 17.72222222222222)"/><use xlink:href="#A" transform="matrix(1,0,0,1,332,832) translate(150.13703703703706 17.72222222222222)"/><use xlink:href="#B" transform="matrix(1,0,0,1,332,832) translate(164.45802469135805 17.72222222222222)"/><use xlink:href="#C" transform="matrix(1,0,0,1,332,832) translate(221.6345679012346 17.72222222222222)"/><use xlink:href="#x" transform="matrix(1,0,0,1,332,832) translate(231.62345679012347 17.72222222222222)"/><use xlink:href="#D" transform="matrix(1,0,0,1,332,832) translate(244.47654320987655 17.72222222222222)"/><use xlink:href="#E" transform="matrix(1,0,0,1,332,832) translate(301.68888888888887 17.72222222222222)"/><use xlink:href="#F" transform="matrix(1,0,0,1,332,832) translate(361.04938271604937 17.72222222222222)"/><use xlink:href="#G" transform="matrix(1,0,0,1,332,832) translate(413.858024691358 17.72222222222222)"/><use xlink:href="#H" transform="matrix(1,0,0,1,332,832) translate(428.85925925925926 17.72222222222222)"/><use xlink:href="#I" transform="matrix(1,0,0,1,332,832) translate(486.0358024691358 17.72222222222222)"/><use xlink:href="#J" transform="matrix(1,0,0,1,332,832) translate(511.0975308641975 17.72222222222222)"/><use xlink:href="#K" transform="matrix(1,0,0,1,332,832) translate(556.8888888888888 17.72222222222222)"/><use xlink:href="#L" transform="matrix(1,0,0,1,332,832) translate(581.9506172839506 17.72222222222222)"/><use xlink:href="#M" transform="matrix(1,0,0,1,332,832) translate(610.5567901234567 17.72222222222222)"/><use xlink:href="#N" transform="matrix(1,0,0,1,332,832) translate(12.99197530864194 35.144444444444446)"/><use xlink:href="#O" transform="matrix(1,0,0,1,332,832) translate(75.21666666666663 35.144444444444446)"/><use xlink:href="#P" transform="matrix(1,0,0,1,332,832) translate(86.67345679012342 35.144444444444446)"/><use xlink:href="#Q" transform="matrix(1,0,0,1,332,832) translate(147.46604938271602 35.144444444444446)"/><use xlink:href="#R" transform="matrix(1,0,0,1,332,832) translate(165.36728395061726 35.144444444444446)"/><use xlink:href="#y" transform="matrix(1,0,0,1,332,832) translate(201.8141975308642 35.144444444444446)"/><use xlink:href="#w" transform="matrix(1,0,0,1,332,832) translate(212.55493827160493 35.144444444444446)"/><use xlink:href="#L" transform="matrix(1,0,0,1,332,832) translate(275.4598765432099 35.144444444444446)"/><use xlink:href="#S" transform="matrix(1,0,0,1,332,832) translate(304.0660493827161 35.144444444444446)"/><use xlink:href="#G" transform="matrix(1,0,0,1,332,832) translate(329.1277777777778 35.144444444444446)"/><use xlink:href="#T" transform="matrix(1,0,0,1,332,832) translate(344.12901234567903 35.144444444444446)"/><use xlink:href="#U" transform="matrix(1,0,0,1,332,832) translate(376.9956790123457 35.144444444444446)"/><use xlink:href="#V" transform="matrix(1,0,0,1,332,832) translate(414.8388888888889 35.144444444444446)"/><use xlink:href="#x" transform="matrix(1,0,0,1,332,832) translate(473.48333333333335 35.144444444444446)"/><use xlink:href="#W" transform="matrix(1,0,0,1,332,832) translate(486.33641975308643 35.144444444444446)"/><use xlink:href="#y" transform="matrix(1,0,0,1,332,832) translate(523.4993827160495 35.144444444444446)"/><use xlink:href="#X" transform="matrix(1,0,0,1,332,832) translate(534.2401234567901 35.144444444444446)"/><use xlink:href="#Y" transform="matrix(1,0,0,1,332,832) translate(565.7462962962962 35.144444444444446)"/><use xlink:href="#Z" transform="matrix(1,0,0,1,332,832) translate(621.5265432098765 35.144444444444446)"/><use xlink:href="#aa" transform="matrix(1,0,0,1,332,832) translate(165.34938271604938 50.61111111111111)"/><use xlink:href="#U" transform="matrix(1,0,0,1,332,832) translate(196.85555555555555 50.61111111111111)"/><use xlink:href="#ab" transform="matrix(1,0,0,1,332,832) translate(234.69876543209875 50.61111111111111)"/><use xlink:href="#x" transform="matrix(1,0,0,1,332,832) translate(286.89876543209874 50.61111111111111)"/><use xlink:href="#W" transform="matrix(1,0,0,1,332,832) translate(299.7518518518518 50.61111111111111)"/><use xlink:href="#y" transform="matrix(1,0,0,1,332,832) translate(336.9148148148148 50.61111111111111)"/><use xlink:href="#ac" transform="matrix(1,0,0,1,332,832) translate(347.65555555555557 50.61111111111111)"/><use xlink:href="#ad" transform="matrix(1,0,0,1,332,832) translate(382.74197530864194 50.61111111111111)"/></g><g transform="matrix(1,0,0,1,332,832)"><a xlink:href="https://en.wikipedia.org/wiki/Hypervisor" target="_blank"><path class="lucid-link lucid-hotspot lucid-overlay-hotspot" fill-opacity="0" d="M434.94 40.3h55.7v15.47h-55.7z"/></a></g><path d="M320 366c0-3.3 2.7-6 6-6h248c3.3 0 6 2.7 6 6v68c0 3.3-2.7 6-6 6H326c-3.3 0-6-2.7-6-6z" stroke="#5e5e5e" stroke-width="3" fill="#fff"/><g><use xlink:href="#g" transform="matrix(1,0,0,1,332,372) translate(78.55555555555556 31.77777777777778)"/></g><path d="M980 466c0-3.3 2.7-6 6-6h248c3.3 0 6 2.7 6 6v68c0 3.3-2.7 6-6 6H986c-3.3 0-6-2.7-6-6z" stroke="#5e5e5e" stroke-width="3" fill="#fff"/><g><use xlink:href="#g" transform="matrix(1,0,0,1,992,472) translate(78.55555555555556 31.77777777777778)"/></g><defs><path fill="#333" d="M33 0v-248h34V0H33" id="ae"/><path fill="#333" d="M117-194c89-4 53 116 60 194h-32v-121c0-31-8-49-39-48C34-167 62-67 57 0H25l-1-190h30c1 10-1 24 2 32 11-22 29-35 61-36" id="af"/><path fill="#333" d="M101-234c-31-9-42 10-38 44h38v23H63V0H32v-167H5v-23h27c-7-52 17-82 69-68v24" id="ag"/><path fill="#333" d="M114-163C36-179 61-72 57 0H25l-1-190h30c1 12-1 29 2 39 6-27 23-49 58-41v29" id="ah"/><path fill="#333" d="M141-36C126-15 110 5 73 4 37 3 15-17 15-53c-1-64 63-63 125-63 3-35-9-54-41-54-24 1-41 7-42 31l-33-3c5-37 33-52 76-52 45 0 72 20 72 64v82c-1 20 7 32 28 27v20c-31 9-61-2-59-35zM48-53c0 20 12 33 32 33 41-3 63-29 60-74-43 2-92-5-92 41" id="ai"/><path fill="#333" d="M135-143c-3-34-86-38-87 0 15 53 115 12 119 90S17 21 10-45l28-5c4 36 97 45 98 0-10-56-113-15-118-90-4-57 82-63 122-42 12 7 21 19 24 35" id="aj"/><path fill="#333" d="M59-47c-2 24 18 29 38 22v24C64 9 27 4 27-40v-127H5v-23h24l9-43h21v43h35v23H59v120" id="ak"/><path fill="#333" d="M84 4C-5 8 30-112 23-190h32v120c0 31 7 50 39 49 72-2 45-101 50-169h31l1 190h-30c-1-10 1-25-2-33-11 22-28 36-60 37" id="al"/><path fill="#333" d="M96-169c-40 0-48 33-48 73s9 75 48 75c24 0 41-14 43-38l32 2c-6 37-31 61-74 61-59 0-76-41-82-99-10-93 101-131 147-64 4 7 5 14 7 22l-32 3c-4-21-16-35-41-35" id="am"/><path fill="#333" d="M100-194c63 0 86 42 84 106H49c0 40 14 67 53 68 26 1 43-12 49-29l28 8c-11 28-37 45-77 45C44 4 14-33 15-96c1-61 26-98 85-98zm52 81c6-60-76-77-97-28-3 7-6 17-6 28h103" id="an"/><g id="a"><use transform="matrix(0.06172839506172839,0,0,0.06172839506172839,0,0)" xlink:href="#ae"/><use transform="matrix(0.06172839506172839,0,0,0.06172839506172839,6.172839506172839,0)" xlink:href="#af"/><use transform="matrix(0.06172839506172839,0,0,0.06172839506172839,18.51851851851852,0)" xlink:href="#ag"/><use transform="matrix(0.06172839506172839,0,0,0.06172839506172839,24.691358024691358,0)" xlink:href="#ah"/><use transform="matrix(0.06172839506172839,0,0,0.06172839506172839,32.03703703703704,0)" xlink:href="#ai"/><use transform="matrix(0.06172839506172839,0,0,0.06172839506172839,44.382716049382715,0)" xlink:href="#aj"/><use transform="matrix(0.06172839506172839,0,0,0.06172839506172839,55.49382716049382,0)" xlink:href="#ak"/><use transform="matrix(0.06172839506172839,0,0,0.06172839506172839,61.666666666666664,0)" xlink:href="#al"/><use transform="matrix(0.06172839506172839,0,0,0.06172839506172839,74.01234567901234,0)" xlink:href="#ah"/><use transform="matrix(0.06172839506172839,0,0,0.06172839506172839,81.35802469135803,0)" xlink:href="#am"/><use transform="matrix(0.06172839506172839,0,0,0.06172839506172839,92.46913580246914,0)" xlink:href="#ak"/><use transform="matrix(0.06172839506172839,0,0,0.06172839506172839,98.64197530864197,0)" xlink:href="#al"/><use transform="matrix(0.06172839506172839,0,0,0.06172839506172839,110.98765432098766,0)" xlink:href="#ah"/><use transform="matrix(0.06172839506172839,0,0,0.06172839506172839,118.33333333333334,0)" xlink:href="#an"/></g><path fill="#333" d="M232-93c-1 65-40 97-104 97C67 4 28-28 28-90v-158h33c8 89-33 224 67 224 102 0 64-133 71-224h33v155" id="ao"/><path fill="#333" d="M115-194c53 0 69 39 70 98 0 66-23 100-70 100C84 3 66-7 56-30L54 0H23l1-261h32v101c10-23 28-34 59-34zm-8 174c40 0 45-34 45-75 0-40-5-75-45-74-42 0-51 32-51 76 0 43 10 73 51 73" id="ap"/><g id="b"><use transform="matrix(0.06172839506172839,0,0,0.06172839506172839,0,0)" xlink:href="#ao"/><use transform="matrix(0.06172839506172839,0,0,0.06172839506172839,15.987654320987653,0)" xlink:href="#ap"/><use transform="matrix(0.06172839506172839,0,0,0.06172839506172839,28.333333333333332,0)" xlink:href="#al"/><use transform="matrix(0.06172839506172839,0,0,0.06172839506172839,40.67901234567901,0)" xlink:href="#af"/><use transform="matrix(0.06172839506172839,0,0,0.06172839506172839,53.02469135802469,0)" xlink:href="#ak"/><use transform="matrix(0.06172839506172839,0,0,0.06172839506172839,59.19753086419753,0)" xlink:href="#al"/></g><path fill="#333" d="M140-251c81 0 123 46 123 126C263-46 219 4 140 4 59 4 17-45 17-125s42-126 123-126zm0 227c63 0 89-41 89-101s-29-99-89-99c-61 0-89 39-89 99S79-25 140-24" id="aq"/><path fill="#333" d="M185-189c-5-48-123-54-124 2 14 75 158 14 163 119 3 78-121 87-175 55-17-10-28-26-33-46l33-7c5 56 141 63 141-1 0-78-155-14-162-118-5-82 145-84 179-34 5 7 8 16 11 25" id="ar"/><g id="c"><use transform="matrix(0.06172839506172839,0,0,0.06172839506172839,0,0)" xlink:href="#aq"/><use transform="matrix(0.06172839506172839,0,0,0.06172839506172839,17.28395061728395,0)" xlink:href="#ar"/></g><path fill="#333" d="M197 0v-115H63V0H30v-248h33v105h134v-105h34V0h-34" id="as"/><path fill="#333" d="M179-190L93 31C79 59 56 82 12 73V49c39 6 53-20 64-50L1-190h34L92-34l54-156h33" id="at"/><path fill="#333" d="M115-194c55 1 70 41 70 98S169 2 115 4C84 4 66-9 55-30l1 105H24l-1-265h31l2 30c10-21 28-34 59-34zm-8 174c40 0 45-34 45-75s-6-73-45-74c-42 0-51 32-51 76 0 43 10 73 51 73" id="au"/><path fill="#333" d="M108 0H70L1-190h34L89-25l56-165h34" id="av"/><path fill="#333" d="M24-231v-30h32v30H24zM24 0v-190h32V0H24" id="aw"/><path fill="#333" d="M100-194c62-1 85 37 85 99 1 63-27 99-86 99S16-35 15-95c0-66 28-99 85-99zM99-20c44 1 53-31 53-75 0-43-8-75-51-75s-53 32-53 75 10 74 51 75" id="ax"/><g id="d"><use transform="matrix(0.06172839506172839,0,0,0.06172839506172839,0,0)" xlink:href="#as"/><use transform="matrix(0.06172839506172839,0,0,0.06172839506172839,15.987654320987653,0)" xlink:href="#at"/><use transform="matrix(0.06172839506172839,0,0,0.06172839506172839,27.098765432098766,0)" xlink:href="#au"/><use transform="matrix(0.06172839506172839,0,0,0.06172839506172839,39.44444444444444,0)" xlink:href="#an"/><use transform="matrix(0.06172839506172839,0,0,0.06172839506172839,51.79012345679012,0)" xlink:href="#ah"/><use transform="matrix(0.06172839506172839,0,0,0.06172839506172839,59.1358024691358,0)" xlink:href="#av"/><use transform="matrix(0.06172839506172839,0,0,0.06172839506172839,70.24691358024691,0)" xlink:href="#aw"/><use transform="matrix(0.06172839506172839,0,0,0.06172839506172839,75.12345679012346,0)" xlink:href="#aj"/><use transform="matrix(0.06172839506172839,0,0,0.06172839506172839,86.23456790123457,0)" xlink:href="#ax"/><use transform="matrix(0.06172839506172839,0,0,0.06172839506172839,98.58024691358025,0)" xlink:href="#ah"/></g><path fill="#333" d="M143 4C61 4 22-44 18-125c-5-107 100-154 193-111 17 8 29 25 37 43l-32 9c-13-25-37-40-76-40-61 0-88 39-88 99 0 61 29 100 91 101 35 0 62-11 79-27v-45h-74v-28h105v86C228-13 192 4 143 4" id="ay"/><g id="e"><use transform="matrix(0.06172839506172839,0,0,0.06172839506172839,0,0)" xlink:href="#ay"/><use transform="matrix(0.06172839506172839,0,0,0.06172839506172839,17.28395061728395,0)" xlink:href="#al"/><use transform="matrix(0.06172839506172839,0,0,0.06172839506172839,29.629629629629626,0)" xlink:href="#an"/><use transform="matrix(0.06172839506172839,0,0,0.06172839506172839,41.9753086419753,0)" xlink:href="#aj"/><use transform="matrix(0.06172839506172839,0,0,0.06172839506172839,53.08641975308642,0)" xlink:href="#ak"/><use transform="matrix(0.06172839506172839,0,0,0.06172839506172839,59.25925925925926,0)" xlink:href="#aq"/><use transform="matrix(0.06172839506172839,0,0,0.06172839506172839,76.54320987654322,0)" xlink:href="#ar"/></g><path fill="#333" d="M30-248c118-7 216 8 213 122C240-48 200 0 122 0H30v-248zM63-27c89 8 146-16 146-99s-60-101-146-95v194" id="az"/><path fill="#333" d="M210-169c-67 3-38 105-44 169h-31v-121c0-29-5-50-35-48C34-165 62-65 56 0H25l-1-190h30c1 10-1 24 2 32 10-44 99-50 107 0 11-21 27-35 58-36 85-2 47 119 55 194h-31v-121c0-29-5-49-35-48" id="aA"/><g id="f"><use transform="matrix(0.06172839506172839,0,0,0.06172839506172839,0,0)" xlink:href="#az"/><use transform="matrix(0.06172839506172839,0,0,0.06172839506172839,15.987654320987653,0)" xlink:href="#ax"/><use transform="matrix(0.06172839506172839,0,0,0.06172839506172839,28.333333333333332,0)" xlink:href="#am"/><use transform="matrix(0.06172839506172839,0,0,0.06172839506172839,39.44444444444444,0)" xlink:href="#al"/><use transform="matrix(0.06172839506172839,0,0,0.06172839506172839,51.79012345679012,0)" xlink:href="#aA"/><use transform="matrix(0.06172839506172839,0,0,0.06172839506172839,70.24691358024691,0)" xlink:href="#an"/><use transform="matrix(0.06172839506172839,0,0,0.06172839506172839,82.5925925925926,0)" xlink:href="#af"/><use transform="matrix(0.06172839506172839,0,0,0.06172839506172839,94.93827160493828,0)" xlink:href="#ak"/><use transform="matrix(0.06172839506172839,0,0,0.06172839506172839,101.11111111111111,0)" xlink:href="#ai"/><use transform="matrix(0.06172839506172839,0,0,0.06172839506172839,113.4567901234568,0)" xlink:href="#ak"/><use transform="matrix(0.06172839506172839,0,0,0.06172839506172839,119.62962962962963,0)" xlink:href="#aw"/><use transform="matrix(0.06172839506172839,0,0,0.06172839506172839,124.50617283950618,0)" xlink:href="#ax"/><use transform="matrix(0.06172839506172839,0,0,0.06172839506172839,136.85185185185185,0)" xlink:href="#af"/><path fill="#333" d="M-1.1 1.54h151.4v1.63H-1.1z"/></g><path fill="#333" d="M160-131c35 5 61 23 61 61C221 17 115-2 30 0v-248c76 3 177-17 177 60 0 33-19 50-47 57zm-97-11c50-1 110 9 110-42 0-47-63-36-110-37v79zm0 115c55-2 124 14 124-45 0-56-70-42-124-44v89" id="aB"/><path fill="#333" d="M0 4l72-265h28L28 4H0" id="aC"/><path fill="#333" d="M30 0v-248h33v221h125V0H30" id="aD"/><g id="g"><use transform="matrix(0.06172839506172839,0,0,0.06172839506172839,0,0)" xlink:href="#aB"/><use transform="matrix(0.06172839506172839,0,0,0.06172839506172839,14.814814814814813,0)" xlink:href="#aw"/><use transform="matrix(0.06172839506172839,0,0,0.06172839506172839,19.691358024691354,0)" xlink:href="#af"/><use transform="matrix(0.06172839506172839,0,0,0.06172839506172839,32.03703703703703,0)" xlink:href="#aC"/><use transform="matrix(0.06172839506172839,0,0,0.06172839506172839,38.20987654320987,0)" xlink:href="#aD"/><use transform="matrix(0.06172839506172839,0,0,0.06172839506172839,50.55555555555555,0)" xlink:href="#aw"/><use transform="matrix(0.06172839506172839,0,0,0.06172839506172839,55.432098765432094,0)" xlink:href="#ap"/><use transform="matrix(0.06172839506172839,0,0,0.06172839506172839,67.77777777777777,0)" xlink:href="#aj"/></g><path fill="#333" d="M106-169C34-169 62-67 57 0H25v-261h32l-1 103c12-21 28-36 61-36 89 0 53 116 60 194h-32v-121c2-32-8-49-39-48" id="aE"/><g id="h"><use transform="matrix(0.06172839506172839,0,0,0.06172839506172839,0,0)" xlink:href="#az"/><use transform="matrix(0.06172839506172839,0,0,0.06172839506172839,15.987654320987653,0)" xlink:href="#ai"/><use transform="matrix(0.06172839506172839,0,0,0.06172839506172839,28.333333333333332,0)" xlink:href="#aj"/><use transform="matrix(0.06172839506172839,0,0,0.06172839506172839,39.44444444444444,0)" xlink:href="#aE"/><use transform="matrix(0.06172839506172839,0,0,0.06172839506172839,51.79012345679012,0)" xlink:href="#aq"/><use transform="matrix(0.06172839506172839,0,0,0.06172839506172839,69.07407407407408,0)" xlink:href="#au"/><use transform="matrix(0.06172839506172839,0,0,0.06172839506172839,81.41975308641976,0)" xlink:href="#aj"/><path fill="#333" d="M-1.1 1.54h94.74v1.63H-1.1z"/></g><path fill="#333" d="M143 0L79-87 56-68V0H24v-261h32v163l83-92h37l-77 82L181 0h-38" id="aF"/><g id="i"><use transform="matrix(0.06172839506172839,0,0,0.06172839506172839,0,0)" xlink:href="#az"/><use transform="matrix(0.06172839506172839,0,0,0.06172839506172839,15.987654320987653,0)" xlink:href="#ax"/><use transform="matrix(0.06172839506172839,0,0,0.06172839506172839,28.333333333333332,0)" xlink:href="#am"/><use transform="matrix(0.06172839506172839,0,0,0.06172839506172839,39.44444444444444,0)" xlink:href="#aF"/><use transform="matrix(0.06172839506172839,0,0,0.06172839506172839,50.55555555555556,0)" xlink:href="#an"/><use transform="matrix(0.06172839506172839,0,0,0.06172839506172839,62.901234567901234,0)" xlink:href="#ah"/></g><path fill="#333" d="M147 0H94L2-248h55l64 206c17-72 42-137 63-206h54" id="aG"/><path fill="#333" d="M25-224v-37h50v37H25zM25 0v-190h50V0H25" id="aH"/><path fill="#333" d="M135-150c-39-12-60 13-60 57V0H25l-1-190h47c2 13-1 29 3 40 6-28 27-53 61-41v41" id="aI"/><path fill="#333" d="M115-3C79 11 28 4 28-45v-112H4v-33h27l15-45h31v45h36v33H77v99c-1 23 16 31 38 25v30" id="aJ"/><path fill="#333" d="M85 4C-2 5 27-109 22-190h50c7 57-23 150 33 157 60-5 35-97 40-157h50l1 190h-47c-2-12 1-28-3-38-12 25-28 42-61 42" id="aK"/><path fill="#333" d="M133-34C117-15 103 5 69 4 32 3 11-16 11-54c-1-60 55-63 116-61 1-26-3-47-28-47-18 1-26 9-28 27l-52-2c7-38 36-58 82-57s74 22 75 68l1 82c-1 14 12 18 25 15v27c-30 8-71 5-69-32zm-48 3c29 0 43-24 42-57-32 0-66-3-65 30 0 17 8 27 23 27" id="aL"/><path fill="#333" d="M25 0v-261h50V0H25" id="aM"/><g id="j"><use transform="matrix(0.06172839506172839,0,0,0.06172839506172839,0,0)" xlink:href="#aG"/><use transform="matrix(0.06172839506172839,0,0,0.06172839506172839,14.382716049382715,0)" xlink:href="#aH"/><use transform="matrix(0.06172839506172839,0,0,0.06172839506172839,20.555555555555554,0)" xlink:href="#aI"/><use transform="matrix(0.06172839506172839,0,0,0.06172839506172839,29.197530864197528,0)" xlink:href="#aJ"/><use transform="matrix(0.06172839506172839,0,0,0.06172839506172839,36.54320987654321,0)" xlink:href="#aK"/><use transform="matrix(0.06172839506172839,0,0,0.06172839506172839,50.06172839506173,0)" xlink:href="#aL"/><use transform="matrix(0.06172839506172839,0,0,0.06172839506172839,62.407407407407405,0)" xlink:href="#aM"/></g><path fill="#333" d="M230 0l2-204L168 0h-37L68-204 70 0H24v-248h70l56 185 57-185h69V0h-46" id="aN"/><path fill="#333" d="M190-63c-7 42-38 67-86 67-59 0-84-38-90-98-12-110 154-137 174-36l-49 2c-2-19-15-32-35-32-30 0-35 28-38 64-6 74 65 87 74 30" id="aO"/><path fill="#333" d="M114-157C55-157 80-60 75 0H25v-261h50l-1 109c12-26 28-41 61-42 86-1 58 113 63 194h-50c-7-57 23-157-34-157" id="aP"/><path fill="#333" d="M135-194c87-1 58 113 63 194h-50c-7-57 23-157-34-157-59 0-34 97-39 157H25l-1-190h47c2 12-1 28 3 38 12-26 28-41 61-42" id="aQ"/><path fill="#333" d="M185-48c-13 30-37 53-82 52C43 2 14-33 14-96s30-98 90-98c62 0 83 45 84 108H66c0 31 8 55 39 56 18 0 30-7 34-22zm-45-69c5-46-57-63-70-21-2 6-4 13-4 21h74" id="aR"/><g id="k"><use transform="matrix(0.06172839506172839,0,0,0.06172839506172839,0,0)" xlink:href="#aN"/><use transform="matrix(0.06172839506172839,0,0,0.06172839506172839,18.456790123456788,0)" xlink:href="#aL"/><use transform="matrix(0.06172839506172839,0,0,0.06172839506172839,30.80246913580247,0)" xlink:href="#aO"/><use transform="matrix(0.06172839506172839,0,0,0.06172839506172839,43.148148148148145,0)" xlink:href="#aP"/><use transform="matrix(0.06172839506172839,0,0,0.06172839506172839,56.666666666666664,0)" xlink:href="#aH"/><use transform="matrix(0.06172839506172839,0,0,0.06172839506172839,62.839506172839506,0)" xlink:href="#aQ"/><use transform="matrix(0.06172839506172839,0,0,0.06172839506172839,76.35802469135803,0)" xlink:href="#aR"/></g><path fill="#333" d="M67-125c0 53 21 87 73 88 37 1 54-22 65-47l45 17C233-25 199 4 140 4 58 4 20-42 15-125 8-235 124-281 211-232c18 10 29 29 36 50l-46 12c-8-25-30-41-62-41-52 0-71 34-72 86" id="aS"/><path fill="#333" d="M110-194c64 0 96 36 96 99 0 64-35 99-97 99-61 0-95-36-95-99 0-62 34-99 96-99zm-1 164c35 0 45-28 45-65 0-40-10-65-43-65-34 0-45 26-45 65 0 36 10 65 43 65" id="aT"/><path fill="#333" d="M137-138c1-29-70-34-71-4 15 46 118 7 119 86 1 83-164 76-172 9l43-7c4 19 20 25 44 25 33 8 57-30 24-41C81-84 22-81 20-136c-2-80 154-74 161-7" id="aU"/><g id="l"><use transform="matrix(0.06172839506172839,0,0,0.06172839506172839,0,0)" xlink:href="#aS"/><use transform="matrix(0.06172839506172839,0,0,0.06172839506172839,15.987654320987653,0)" xlink:href="#aT"/><use transform="matrix(0.06172839506172839,0,0,0.06172839506172839,29.50617283950617,0)" xlink:href="#aQ"/><use transform="matrix(0.06172839506172839,0,0,0.06172839506172839,43.02469135802469,0)" xlink:href="#aJ"/><use transform="matrix(0.06172839506172839,0,0,0.06172839506172839,50.37037037037037,0)" xlink:href="#aL"/><use transform="matrix(0.06172839506172839,0,0,0.06172839506172839,62.716049382716044,0)" xlink:href="#aH"/><use transform="matrix(0.06172839506172839,0,0,0.06172839506172839,68.88888888888889,0)" xlink:href="#aQ"/><use transform="matrix(0.06172839506172839,0,0,0.06172839506172839,82.4074074074074,0)" xlink:href="#aR"/><use transform="matrix(0.06172839506172839,0,0,0.06172839506172839,94.75308641975309,0)" xlink:href="#aI"/><use transform="matrix(0.06172839506172839,0,0,0.06172839506172839,103.39506172839506,0)" xlink:href="#aU"/></g><path fill="#333" d="M101-251c82-7 93 87 43 132L82-64C71-53 59-42 53-27h129V0H18c2-99 128-94 128-182 0-28-16-43-45-43s-46 15-49 41l-32-3c6-41 34-60 81-64" id="aV"/><use transform="matrix(0.06172839506172839,0,0,0.06172839506172839,0,0)" xlink:href="#aV" id="m"/><path fill="#333" d="M24 0v-261h32V0H24" id="aW"/><g id="n"><use transform="matrix(0.06172839506172839,0,0,0.06172839506172839,0,0)" xlink:href="#ae"/><use transform="matrix(0.06172839506172839,0,0,0.06172839506172839,6.172839506172839,0)" xlink:href="#aA"/><use transform="matrix(0.06172839506172839,0,0,0.06172839506172839,24.629629629629626,0)" xlink:href="#au"/><use transform="matrix(0.06172839506172839,0,0,0.06172839506172839,36.9753086419753,0)" xlink:href="#aW"/><use transform="matrix(0.06172839506172839,0,0,0.06172839506172839,41.85185185185185,0)" xlink:href="#an"/><use transform="matrix(0.06172839506172839,0,0,0.06172839506172839,54.197530864197525,0)" xlink:href="#aA"/><use transform="matrix(0.06172839506172839,0,0,0.06172839506172839,72.65432098765432,0)" xlink:href="#an"/><use transform="matrix(0.06172839506172839,0,0,0.06172839506172839,85,0)" xlink:href="#af"/><use transform="matrix(0.06172839506172839,0,0,0.06172839506172839,97.34567901234568,0)" xlink:href="#ak"/><use transform="matrix(0.06172839506172839,0,0,0.06172839506172839,103.51851851851852,0)" xlink:href="#ai"/><use transform="matrix(0.06172839506172839,0,0,0.06172839506172839,115.8641975308642,0)" xlink:href="#ak"/><use transform="matrix(0.06172839506172839,0,0,0.06172839506172839,122.03703703703704,0)" xlink:href="#aw"/><use transform="matrix(0.06172839506172839,0,0,0.06172839506172839,126.91358024691357,0)" xlink:href="#ax"/><use transform="matrix(0.06172839506172839,0,0,0.06172839506172839,139.25925925925927,0)" xlink:href="#af"/></g><path fill="#333" d="M33 0v-38h34V0H33" id="aX"/><g id="o"><use transform="matrix(0.06172839506172839,0,0,0.06172839506172839,0,0)" xlink:href="#aq"/><use transform="matrix(0.06172839506172839,0,0,0.06172839506172839,17.28395061728395,0)" xlink:href="#au"/><use transform="matrix(0.06172839506172839,0,0,0.06172839506172839,29.629629629629626,0)" xlink:href="#ak"/><use transform="matrix(0.06172839506172839,0,0,0.06172839506172839,35.80246913580247,0)" xlink:href="#aw"/><use transform="matrix(0.06172839506172839,0,0,0.06172839506172839,40.67901234567901,0)" xlink:href="#ax"/><use transform="matrix(0.06172839506172839,0,0,0.06172839506172839,53.02469135802469,0)" xlink:href="#af"/><use transform="matrix(0.06172839506172839,0,0,0.06172839506172839,65.37037037037037,0)" xlink:href="#aj"/><use transform="matrix(0.06172839506172839,0,0,0.06172839506172839,76.48148148148148,0)" xlink:href="#aX"/><use transform="matrix(0.06172839506172839,0,0,0.06172839506172839,82.65432098765432,0)" xlink:href="#aX"/><use transform="matrix(0.06172839506172839,0,0,0.06172839506172839,88.82716049382715,0)" xlink:href="#aX"/><use transform="matrix(0.06172839506172839,0,0,0.06172839506172839,94.99999999999999,0)" xlink:href="#ag"/><use transform="matrix(0.06172839506172839,0,0,0.06172839506172839,101.17283950617282,0)" xlink:href="#ax"/><use transform="matrix(0.06172839506172839,0,0,0.06172839506172839,113.5185185185185,0)" xlink:href="#ah"/></g><g id="p"><use transform="matrix(0.06172839506172839,0,0,0.06172839506172839,0,0)" xlink:href="#ak"/><use transform="matrix(0.06172839506172839,0,0,0.06172839506172839,6.172839506172839,0)" xlink:href="#aE"/><use transform="matrix(0.06172839506172839,0,0,0.06172839506172839,18.51851851851852,0)" xlink:href="#aw"/><use transform="matrix(0.06172839506172839,0,0,0.06172839506172839,23.395061728395063,0)" xlink:href="#aj"/></g><path fill="#333" d="M24-231v-30h32v30H24zM-9 49c24 4 33-6 33-30v-209h32V24c2 40-23 58-65 49V49" id="aY"/><g id="q"><use transform="matrix(0.06172839506172839,0,0,0.06172839506172839,0,0)" xlink:href="#au"/><use transform="matrix(0.06172839506172839,0,0,0.06172839506172839,12.345679012345679,0)" xlink:href="#ah"/><use transform="matrix(0.06172839506172839,0,0,0.06172839506172839,19.691358024691358,0)" xlink:href="#ax"/><use transform="matrix(0.06172839506172839,0,0,0.06172839506172839,32.03703703703704,0)" xlink:href="#aY"/><use transform="matrix(0.06172839506172839,0,0,0.06172839506172839,36.91358024691358,0)" xlink:href="#an"/><use transform="matrix(0.06172839506172839,0,0,0.06172839506172839,49.25925925925926,0)" xlink:href="#am"/><use transform="matrix(0.06172839506172839,0,0,0.06172839506172839,60.37037037037037,0)" xlink:href="#ak"/></g><path fill="#333" d="M206 0h-36l-40-164L89 0H53L-1-190h32L70-26l43-164h34l41 164 42-164h31" id="aZ"/><g id="r"><use transform="matrix(0.06172839506172839,0,0,0.06172839506172839,0,0)" xlink:href="#aZ"/><use transform="matrix(0.06172839506172839,0,0,0.06172839506172839,15.987654320987653,0)" xlink:href="#an"/></g><path fill="#333" d="M85-194c31 0 48 13 60 33l-1-100h32l1 261h-30c-2-10 0-23-3-31C134-8 116 4 85 4 32 4 16-35 15-94c0-66 23-100 70-100zm9 24c-40 0-46 34-46 75 0 40 6 74 45 74 42 0 51-32 51-76 0-42-9-74-50-73" id="ba"/><g id="s"><use transform="matrix(0.06172839506172839,0,0,0.06172839506172839,0,0)" xlink:href="#al"/><use transform="matrix(0.06172839506172839,0,0,0.06172839506172839,12.345679012345679,0)" xlink:href="#aj"/><use transform="matrix(0.06172839506172839,0,0,0.06172839506172839,23.45679012345679,0)" xlink:href="#an"/><use transform="matrix(0.06172839506172839,0,0,0.06172839506172839,35.80246913580247,0)" xlink:href="#ba"/></g><g id="t"><use transform="matrix(0.06172839506172839,0,0,0.06172839506172839,0,0)" xlink:href="#az"/><use transform="matrix(0.06172839506172839,0,0,0.06172839506172839,15.987654320987653,0)" xlink:href="#ax"/><use transform="matrix(0.06172839506172839,0,0,0.06172839506172839,28.333333333333332,0)" xlink:href="#am"/><use transform="matrix(0.06172839506172839,0,0,0.06172839506172839,39.44444444444444,0)" xlink:href="#aF"/><use transform="matrix(0.06172839506172839,0,0,0.06172839506172839,50.55555555555556,0)" xlink:href="#an"/><use transform="matrix(0.06172839506172839,0,0,0.06172839506172839,62.901234567901234,0)" xlink:href="#ah"/></g><g id="u"><use transform="matrix(0.06172839506172839,0,0,0.06172839506172839,0,0)" xlink:href="#am"/><use transform="matrix(0.06172839506172839,0,0,0.06172839506172839,11.11111111111111,0)" xlink:href="#ax"/><use transform="matrix(0.06172839506172839,0,0,0.06172839506172839,23.45679012345679,0)" xlink:href="#af"/><use transform="matrix(0.06172839506172839,0,0,0.06172839506172839,35.80246913580247,0)" xlink:href="#ak"/><use transform="matrix(0.06172839506172839,0,0,0.06172839506172839,41.97530864197531,0)" xlink:href="#ai"/><use transform="matrix(0.06172839506172839,0,0,0.06172839506172839,54.32098765432099,0)" xlink:href="#aw"/><use transform="matrix(0.06172839506172839,0,0,0.06172839506172839,59.19753086419753,0)" xlink:href="#af"/><use transform="matrix(0.06172839506172839,0,0,0.06172839506172839,71.54320987654322,0)" xlink:href="#an"/><use transform="matrix(0.06172839506172839,0,0,0.06172839506172839,83.8888888888889,0)" xlink:href="#ah"/><use transform="matrix(0.06172839506172839,0,0,0.06172839506172839,91.23456790123458,0)" xlink:href="#aj"/></g><path fill="#333" d="M80-196l47-18 7 23-49 13 32 44-20 13-27-46-27 45-21-12 33-44-49-13 8-23 47 19-2-53h23" id="bb"/><path d="M205 0l-28-72H64L36 0H1l101-248h38L239 0h-34zm-38-99l-47-123c-12 45-31 82-46 123h93" id="bc"/><g id="v"><use transform="matrix(0.049382716049382706,0,0,0.049382716049382706,0,0)" xlink:href="#bb"/><use transform="matrix(0.049382716049382706,0,0,0.049382716049382706,6.913580246913579,0)" xlink:href="#bb"/><use transform="matrix(0.03580246913580247,0,0,0.03580246913580247,13.827160493827158,0)" xlink:href="#bc"/></g><path d="M106-169C34-169 62-67 57 0H25v-261h32l-1 103c12-21 28-36 61-36 89 0 53 116 60 194h-32v-121c2-32-8-49-39-48" id="bd"/><path d="M179-190L93 31C79 59 56 82 12 73V49c39 6 53-20 64-50L1-190h34L92-34l54-156h33" id="be"/><path d="M115-194c55 1 70 41 70 98S169 2 115 4C84 4 66-9 55-30l1 105H24l-1-265h31l2 30c10-21 28-34 59-34zm-8 174c40 0 45-34 45-75s-6-73-45-74c-42 0-51 32-51 76 0 43 10 73 51 73" id="bf"/><path d="M100-194c63 0 86 42 84 106H49c0 40 14 67 53 68 26 1 43-12 49-29l28 8c-11 28-37 45-77 45C44 4 14-33 15-96c1-61 26-98 85-98zm52 81c6-60-76-77-97-28-3 7-6 17-6 28h103" id="bg"/><path d="M114-163C36-179 61-72 57 0H25l-1-190h30c1 12-1 29 2 39 6-27 23-49 58-41v29" id="bh"/><path d="M108 0H70L1-190h34L89-25l56-165h34" id="bi"/><path d="M24-231v-30h32v30H24zM24 0v-190h32V0H24" id="bj"/><path d="M135-143c-3-34-86-38-87 0 15 53 115 12 119 90S17 21 10-45l28-5c4 36 97 45 98 0-10-56-113-15-118-90-4-57 82-63 122-42 12 7 21 19 24 35" id="bk"/><path d="M100-194c62-1 85 37 85 99 1 63-27 99-86 99S16-35 15-95c0-66 28-99 85-99zM99-20c44 1 53-31 53-75 0-43-8-75-51-75s-53 32-53 75 10 74 51 75" id="bl"/><g id="w"><use transform="matrix(0.03580246913580247,0,0,0.03580246913580247,0,0)" xlink:href="#bd"/><use transform="matrix(0.03580246913580247,0,0,0.03580246913580247,7.160493827160494,0)" xlink:href="#be"/><use transform="matrix(0.03580246913580247,0,0,0.03580246913580247,13.604938271604938,0)" xlink:href="#bf"/><use transform="matrix(0.03580246913580247,0,0,0.03580246913580247,20.76543209876543,0)" xlink:href="#bg"/><use transform="matrix(0.03580246913580247,0,0,0.03580246913580247,27.925925925925924,0)" xlink:href="#bh"/><use transform="matrix(0.03580246913580247,0,0,0.03580246913580247,32.18641975308642,0)" xlink:href="#bi"/><use transform="matrix(0.03580246913580247,0,0,0.03580246913580247,38.63086419753086,0)" xlink:href="#bj"/><use transform="matrix(0.03580246913580247,0,0,0.03580246913580247,41.459259259259255,0)" xlink:href="#bk"/><use transform="matrix(0.03580246913580247,0,0,0.03580246913580247,47.9037037037037,0)" xlink:href="#bl"/><use transform="matrix(0.03580246913580247,0,0,0.03580246913580247,55.06419753086419,0)" xlink:href="#bh"/></g><g id="x"><use transform="matrix(0.03580246913580247,0,0,0.03580246913580247,0,0)" xlink:href="#bj"/><use transform="matrix(0.03580246913580247,0,0,0.03580246913580247,2.8283950617283953,0)" xlink:href="#bk"/></g><path d="M141-36C126-15 110 5 73 4 37 3 15-17 15-53c-1-64 63-63 125-63 3-35-9-54-41-54-24 1-41 7-42 31l-33-3c5-37 33-52 76-52 45 0 72 20 72 64v82c-1 20 7 32 28 27v20c-31 9-61-2-59-35zM48-53c0 20 12 33 32 33 41-3 63-29 60-74-43 2-92-5-92 41" id="bm"/><use transform="matrix(0.03580246913580247,0,0,0.03580246913580247,0,0)" xlink:href="#bm" id="y"/><path d="M143 0L79-87 56-68V0H24v-261h32v163l83-92h37l-77 82L181 0h-38" id="bn"/><path d="M117-194c89-4 53 116 60 194h-32v-121c0-31-8-49-39-48C34-167 62-67 57 0H25l-1-190h30c1 10-1 24 2 32 11-22 29-35 61-36" id="bo"/><path d="M85-194c31 0 48 13 60 33l-1-100h32l1 261h-30c-2-10 0-23-3-31C134-8 116 4 85 4 32 4 16-35 15-94c0-66 23-100 70-100zm9 24c-40 0-46 34-46 75 0 40 6 74 45 74 42 0 51-32 51-76 0-42-9-74-50-73" id="bp"/><g id="z"><use transform="matrix(0.03580246913580247,0,0,0.03580246913580247,0,0)" xlink:href="#bn"/><use transform="matrix(0.03580246913580247,0,0,0.03580246913580247,6.444444444444445,0)" xlink:href="#bj"/><use transform="matrix(0.03580246913580247,0,0,0.03580246913580247,9.27283950617284,0)" xlink:href="#bo"/><use transform="matrix(0.03580246913580247,0,0,0.03580246913580247,16.433333333333334,0)" xlink:href="#bp"/></g><path d="M101-234c-31-9-42 10-38 44h38v23H63V0H32v-167H5v-23h27c-7-52 17-82 69-68v24" id="bq"/><g id="A"><use transform="matrix(0.03580246913580247,0,0,0.03580246913580247,0,0)" xlink:href="#bl"/><use transform="matrix(0.03580246913580247,0,0,0.03580246913580247,7.160493827160494,0)" xlink:href="#bq"/></g><path d="M210-169c-67 3-38 105-44 169h-31v-121c0-29-5-50-35-48C34-165 62-65 56 0H25l-1-190h30c1 10-1 24 2 32 10-44 99-50 107 0 11-21 27-35 58-36 85-2 47 119 55 194h-31v-121c0-29-5-49-35-48" id="br"/><path d="M84 4C-5 8 30-112 23-190h32v120c0 31 7 50 39 49 72-2 45-101 50-169h31l1 190h-30c-1-10 1-25-2-33-11 22-28 36-60 37" id="bs"/><path d="M24 0v-261h32V0H24" id="bt"/><path d="M59-47c-2 24 18 29 38 22v24C64 9 27 4 27-40v-127H5v-23h24l9-43h21v43h35v23H59v120" id="bu"/><path d="M68-36c1 33-1 63-14 82H32c9-13 17-26 17-46H33v-36h35zM33-154v-36h35v36H33" id="bv"/><g id="B"><use transform="matrix(0.03580246913580247,0,0,0.03580246913580247,0,0)" xlink:href="#bg"/><use transform="matrix(0.03580246913580247,0,0,0.03580246913580247,7.160493827160494,0)" xlink:href="#br"/><use transform="matrix(0.03580246913580247,0,0,0.03580246913580247,17.86543209876543,0)" xlink:href="#bs"/><use transform="matrix(0.03580246913580247,0,0,0.03580246913580247,25.025925925925925,0)" xlink:href="#bt"/><use transform="matrix(0.03580246913580247,0,0,0.03580246913580247,27.85432098765432,0)" xlink:href="#bm"/><use transform="matrix(0.03580246913580247,0,0,0.03580246913580247,35.01481481481481,0)" xlink:href="#bu"/><use transform="matrix(0.03580246913580247,0,0,0.03580246913580247,38.59506172839506,0)" xlink:href="#bl"/><use transform="matrix(0.03580246913580247,0,0,0.03580246913580247,45.75555555555556,0)" xlink:href="#bh"/><use transform="matrix(0.03580246913580247,0,0,0.03580246913580247,50.01604938271605,0)" xlink:href="#bv"/></g><g id="C"><use transform="matrix(0.03580246913580247,0,0,0.03580246913580247,0,0)" xlink:href="#bj"/><use transform="matrix(0.03580246913580247,0,0,0.03580246913580247,2.8283950617283953,0)" xlink:href="#bu"/></g><path d="M96-169c-40 0-48 33-48 73s9 75 48 75c24 0 41-14 43-38l32 2c-6 37-31 61-74 61-59 0-76-41-82-99-10-93 101-131 147-64 4 7 5 14 7 22l-32 3c-4-21-16-35-41-35" id="bw"/><g id="D"><use transform="matrix(0.03580246913580247,0,0,0.03580246913580247,0,0)" xlink:href="#bw"/><use transform="matrix(0.03580246913580247,0,0,0.03580246913580247,6.444444444444445,0)" xlink:href="#bl"/><use transform="matrix(0.03580246913580247,0,0,0.03580246913580247,13.604938271604938,0)" xlink:href="#br"/><use transform="matrix(0.03580246913580247,0,0,0.03580246913580247,24.309876543209874,0)" xlink:href="#bf"/><use transform="matrix(0.03580246913580247,0,0,0.03580246913580247,31.470370370370368,0)" xlink:href="#bs"/><use transform="matrix(0.03580246913580247,0,0,0.03580246913580247,38.63086419753086,0)" xlink:href="#bu"/><use transform="matrix(0.03580246913580247,0,0,0.03580246913580247,42.21111111111111,0)" xlink:href="#bg"/><use transform="matrix(0.03580246913580247,0,0,0.03580246913580247,49.37160493827161,0)" xlink:href="#bh"/></g><path d="M206 0h-36l-40-164L89 0H53L-1-190h32L70-26l43-164h34l41 164 42-164h31" id="bx"/><path d="M68-38c1 34 0 65-14 84H32c9-13 17-26 17-46H33v-38h35" id="by"/><g id="E"><use transform="matrix(0.03580246913580247,0,0,0.03580246913580247,0,0)" xlink:href="#bk"/><use transform="matrix(0.03580246913580247,0,0,0.03580246913580247,6.444444444444445,0)" xlink:href="#bl"/><use transform="matrix(0.03580246913580247,0,0,0.03580246913580247,13.604938271604938,0)" xlink:href="#bq"/><use transform="matrix(0.03580246913580247,0,0,0.03580246913580247,17.185185185185183,0)" xlink:href="#bu"/><use transform="matrix(0.03580246913580247,0,0,0.03580246913580247,20.76543209876543,0)" xlink:href="#bx"/><use transform="matrix(0.03580246913580247,0,0,0.03580246913580247,30.038271604938267,0)" xlink:href="#bm"/><use transform="matrix(0.03580246913580247,0,0,0.03580246913580247,37.19876543209877,0)" xlink:href="#bh"/><use transform="matrix(0.03580246913580247,0,0,0.03580246913580247,41.45925925925926,0)" xlink:href="#bg"/><use transform="matrix(0.03580246913580247,0,0,0.03580246913580247,48.619753086419756,0)" xlink:href="#by"/></g><g id="F"><use transform="matrix(0.03580246913580247,0,0,0.03580246913580247,0,0)" xlink:href="#bq"/><use transform="matrix(0.03580246913580247,0,0,0.03580246913580247,3.580246913580247,0)" xlink:href="#bj"/><use transform="matrix(0.03580246913580247,0,0,0.03580246913580247,6.408641975308642,0)" xlink:href="#bh"/><use transform="matrix(0.03580246913580247,0,0,0.03580246913580247,10.669135802469135,0)" xlink:href="#br"/><use transform="matrix(0.03580246913580247,0,0,0.03580246913580247,21.374074074074073,0)" xlink:href="#bx"/><use transform="matrix(0.03580246913580247,0,0,0.03580246913580247,30.646913580246913,0)" xlink:href="#bm"/><use transform="matrix(0.03580246913580247,0,0,0.03580246913580247,37.80740740740741,0)" xlink:href="#bh"/><use transform="matrix(0.03580246913580247,0,0,0.03580246913580247,42.067901234567906,0)" xlink:href="#bg"/></g><g id="G"><use transform="matrix(0.03580246913580247,0,0,0.03580246913580247,0,0)" xlink:href="#bl"/><use transform="matrix(0.03580246913580247,0,0,0.03580246913580247,7.160493827160494,0)" xlink:href="#bh"/></g><g id="H"><use transform="matrix(0.03580246913580247,0,0,0.03580246913580247,0,0)" xlink:href="#bd"/><use transform="matrix(0.03580246913580247,0,0,0.03580246913580247,7.160493827160494,0)" xlink:href="#bm"/><use transform="matrix(0.03580246913580247,0,0,0.03580246913580247,14.320987654320987,0)" xlink:href="#bh"/><use transform="matrix(0.03580246913580247,0,0,0.03580246913580247,18.581481481481482,0)" xlink:href="#bp"/><use transform="matrix(0.03580246913580247,0,0,0.03580246913580247,25.741975308641976,0)" xlink:href="#bx"/><use transform="matrix(0.03580246913580247,0,0,0.03580246913580247,35.01481481481481,0)" xlink:href="#bm"/><use transform="matrix(0.03580246913580247,0,0,0.03580246913580247,42.175308641975306,0)" xlink:href="#bh"/><use transform="matrix(0.03580246913580247,0,0,0.03580246913580247,46.4358024691358,0)" xlink:href="#bg"/></g><g id="I"><use transform="matrix(0.03580246913580247,0,0,0.03580246913580247,0,0)" xlink:href="#bu"/><use transform="matrix(0.03580246913580247,0,0,0.03580246913580247,3.580246913580247,0)" xlink:href="#bd"/><use transform="matrix(0.03580246913580247,0,0,0.03580246913580247,10.74074074074074,0)" xlink:href="#bm"/><use transform="matrix(0.03580246913580247,0,0,0.03580246913580247,17.901234567901234,0)" xlink:href="#bu"/></g><g id="J"><use transform="matrix(0.03580246913580247,0,0,0.03580246913580247,0,0)" xlink:href="#bw"/><use transform="matrix(0.03580246913580247,0,0,0.03580246913580247,6.444444444444445,0)" xlink:href="#bh"/><use transform="matrix(0.03580246913580247,0,0,0.03580246913580247,10.704938271604938,0)" xlink:href="#bg"/><use transform="matrix(0.03580246913580247,0,0,0.03580246913580247,17.86543209876543,0)" xlink:href="#bm"/><use transform="matrix(0.03580246913580247,0,0,0.03580246913580247,25.025925925925925,0)" xlink:href="#bu"/><use transform="matrix(0.03580246913580247,0,0,0.03580246913580247,28.606172839506172,0)" xlink:href="#bg"/><use transform="matrix(0.03580246913580247,0,0,0.03580246913580247,35.766666666666666,0)" xlink:href="#bk"/></g><g id="K"><use transform="matrix(0.03580246913580247,0,0,0.03580246913580247,0,0)" xlink:href="#bm"/><use transform="matrix(0.03580246913580247,0,0,0.03580246913580247,7.160493827160494,0)" xlink:href="#bo"/><use transform="matrix(0.03580246913580247,0,0,0.03580246913580247,14.320987654320987,0)" xlink:href="#bp"/></g><g id="L"><use transform="matrix(0.03580246913580247,0,0,0.03580246913580247,0,0)" xlink:href="#bh"/><use transform="matrix(0.03580246913580247,0,0,0.03580246913580247,4.260493827160494,0)" xlink:href="#bs"/><use transform="matrix(0.03580246913580247,0,0,0.03580246913580247,11.420987654320989,0)" xlink:href="#bo"/><use transform="matrix(0.03580246913580247,0,0,0.03580246913580247,18.581481481481482,0)" xlink:href="#bk"/></g><g id="M"><use transform="matrix(0.03580246913580247,0,0,0.03580246913580247,0,0)" xlink:href="#bi"/><use transform="matrix(0.03580246913580247,0,0,0.03580246913580247,6.444444444444445,0)" xlink:href="#bj"/><use transform="matrix(0.03580246913580247,0,0,0.03580246913580247,9.27283950617284,0)" xlink:href="#bh"/><use transform="matrix(0.03580246913580247,0,0,0.03580246913580247,13.533333333333335,0)" xlink:href="#bu"/><use transform="matrix(0.03580246913580247,0,0,0.03580246913580247,17.113580246913582,0)" xlink:href="#bs"/><use transform="matrix(0.03580246913580247,0,0,0.03580246913580247,24.274074074074075,0)" xlink:href="#bm"/><use transform="matrix(0.03580246913580247,0,0,0.03580246913580247,31.43456790123457,0)" xlink:href="#bt"/></g><path d="M33 0v-38h34V0H33" id="bz"/><g id="N"><use transform="matrix(0.03580246913580247,0,0,0.03580246913580247,0,0)" xlink:href="#br"/><use transform="matrix(0.03580246913580247,0,0,0.03580246913580247,10.704938271604938,0)" xlink:href="#bm"/><use transform="matrix(0.03580246913580247,0,0,0.03580246913580247,17.86543209876543,0)" xlink:href="#bw"/><use transform="matrix(0.03580246913580247,0,0,0.03580246913580247,24.309876543209874,0)" xlink:href="#bd"/><use transform="matrix(0.03580246913580247,0,0,0.03580246913580247,31.470370370370368,0)" xlink:href="#bj"/><use transform="matrix(0.03580246913580247,0,0,0.03580246913580247,34.29876543209876,0)" xlink:href="#bo"/><use transform="matrix(0.03580246913580247,0,0,0.03580246913580247,41.459259259259255,0)" xlink:href="#bg"/><use transform="matrix(0.03580246913580247,0,0,0.03580246913580247,48.61975308641975,0)" xlink:href="#bk"/><use transform="matrix(0.03580246913580247,0,0,0.03580246913580247,55.06419753086419,0)" xlink:href="#bz"/></g><use transform="matrix(0.03580246913580247,0,0,0.03580246913580247,0,0)" xlink:href="#bc" id="O"/><g id="P"><use transform="matrix(0.03580246913580247,0,0,0.03580246913580247,0,0)" xlink:href="#bw"/><use transform="matrix(0.03580246913580247,0,0,0.03580246913580247,6.444444444444445,0)" xlink:href="#bl"/><use transform="matrix(0.03580246913580247,0,0,0.03580246913580247,13.604938271604938,0)" xlink:href="#br"/><use transform="matrix(0.03580246913580247,0,0,0.03580246913580247,24.309876543209874,0)" xlink:href="#bf"/><use transform="matrix(0.03580246913580247,0,0,0.03580246913580247,31.470370370370368,0)" xlink:href="#bs"/><use transform="matrix(0.03580246913580247,0,0,0.03580246913580247,38.63086419753086,0)" xlink:href="#bu"/><use transform="matrix(0.03580246913580247,0,0,0.03580246913580247,42.21111111111111,0)" xlink:href="#bg"/><use transform="matrix(0.03580246913580247,0,0,0.03580246913580247,49.37160493827161,0)" xlink:href="#bh"/></g><g id="Q"><use transform="matrix(0.03580246913580247,0,0,0.03580246913580247,0,0)" xlink:href="#bl"/><use transform="matrix(0.03580246913580247,0,0,0.03580246913580247,7.160493827160494,0)" xlink:href="#bo"/></g><g id="R"><use transform="matrix(0.03580246913580247,0,0,0.03580246913580247,0,0)" xlink:href="#bx"/><use transform="matrix(0.03580246913580247,0,0,0.03580246913580247,9.27283950617284,0)" xlink:href="#bd"/><use transform="matrix(0.03580246913580247,0,0,0.03580246913580247,16.433333333333334,0)" xlink:href="#bj"/><use transform="matrix(0.03580246913580247,0,0,0.03580246913580247,19.261728395061727,0)" xlink:href="#bw"/><use transform="matrix(0.03580246913580247,0,0,0.03580246913580247,25.706172839506173,0)" xlink:href="#bd"/></g><g id="S"><use transform="matrix(0.03580246913580247,0,0,0.03580246913580247,0,0)" xlink:href="#bl"/><use transform="matrix(0.03580246913580247,0,0,0.03580246913580247,7.160493827160494,0)" xlink:href="#bo"/><use transform="matrix(0.03580246913580247,0,0,0.03580246913580247,14.320987654320987,0)" xlink:href="#bg"/></g><g id="T"><use transform="matrix(0.03580246913580247,0,0,0.03580246913580247,0,0)" xlink:href="#br"/><use transform="matrix(0.03580246913580247,0,0,0.03580246913580247,10.704938271604938,0)" xlink:href="#bl"/><use transform="matrix(0.03580246913580247,0,0,0.03580246913580247,17.86543209876543,0)" xlink:href="#bh"/><use transform="matrix(0.03580246913580247,0,0,0.03580246913580247,22.125925925925927,0)" xlink:href="#bg"/></g><g id="U"><use transform="matrix(0.03580246913580247,0,0,0.03580246913580247,0,0)" xlink:href="#bi"/><use transform="matrix(0.03580246913580247,0,0,0.03580246913580247,6.444444444444445,0)" xlink:href="#bj"/><use transform="matrix(0.03580246913580247,0,0,0.03580246913580247,9.27283950617284,0)" xlink:href="#bh"/><use transform="matrix(0.03580246913580247,0,0,0.03580246913580247,13.533333333333335,0)" xlink:href="#bu"/><use transform="matrix(0.03580246913580247,0,0,0.03580246913580247,17.113580246913582,0)" xlink:href="#bs"/><use transform="matrix(0.03580246913580247,0,0,0.03580246913580247,24.274074074074075,0)" xlink:href="#bm"/><use transform="matrix(0.03580246913580247,0,0,0.03580246913580247,31.43456790123457,0)" xlink:href="#bt"/></g><g id="V"><use transform="matrix(0.03580246913580247,0,0,0.03580246913580247,0,0)" xlink:href="#br"/><use transform="matrix(0.03580246913580247,0,0,0.03580246913580247,10.704938271604938,0)" xlink:href="#bm"/><use transform="matrix(0.03580246913580247,0,0,0.03580246913580247,17.86543209876543,0)" xlink:href="#bw"/><use transform="matrix(0.03580246913580247,0,0,0.03580246913580247,24.309876543209874,0)" xlink:href="#bd"/><use transform="matrix(0.03580246913580247,0,0,0.03580246913580247,31.470370370370368,0)" xlink:href="#bj"/><use transform="matrix(0.03580246913580247,0,0,0.03580246913580247,34.29876543209876,0)" xlink:href="#bo"/><use transform="matrix(0.03580246913580247,0,0,0.03580246913580247,41.459259259259255,0)" xlink:href="#bg"/><use transform="matrix(0.03580246913580247,0,0,0.03580246913580247,48.61975308641975,0)" xlink:href="#bk"/></g><g id="W"><use transform="matrix(0.03580246913580247,0,0,0.03580246913580247,0,0)" xlink:href="#bw"/><use transform="matrix(0.03580246913580247,0,0,0.03580246913580247,6.444444444444445,0)" xlink:href="#bm"/><use transform="matrix(0.03580246913580247,0,0,0.03580246913580247,13.604938271604938,0)" xlink:href="#bt"/><use transform="matrix(0.03580246913580247,0,0,0.03580246913580247,16.433333333333334,0)" xlink:href="#bt"/><use transform="matrix(0.03580246913580247,0,0,0.03580246913580247,19.261728395061727,0)" xlink:href="#bg"/><use transform="matrix(0.03580246913580247,0,0,0.03580246913580247,26.422222222222224,0)" xlink:href="#bp"/></g><g id="X"><use transform="matrix(0.03580246913580247,0,0,0.03580246913580247,0,0)" xlink:href="#bd"/><use transform="matrix(0.03580246913580247,0,0,0.03580246913580247,7.160493827160494,0)" xlink:href="#bl"/><use transform="matrix(0.03580246913580247,0,0,0.03580246913580247,14.320987654320987,0)" xlink:href="#bk"/><use transform="matrix(0.03580246913580247,0,0,0.03580246913580247,20.76543209876543,0)" xlink:href="#bu"/></g><g id="Y"><use transform="matrix(0.03580246913580247,0,0,0.03580246913580247,0,0)" xlink:href="#br"/><use transform="matrix(0.03580246913580247,0,0,0.03580246913580247,10.704938271604938,0)" xlink:href="#bm"/><use transform="matrix(0.03580246913580247,0,0,0.03580246913580247,17.86543209876543,0)" xlink:href="#bw"/><use transform="matrix(0.03580246913580247,0,0,0.03580246913580247,24.309876543209874,0)" xlink:href="#bd"/><use transform="matrix(0.03580246913580247,0,0,0.03580246913580247,31.470370370370368,0)" xlink:href="#bj"/><use transform="matrix(0.03580246913580247,0,0,0.03580246913580247,34.29876543209876,0)" xlink:href="#bo"/><use transform="matrix(0.03580246913580247,0,0,0.03580246913580247,41.459259259259255,0)" xlink:href="#bg"/><use transform="matrix(0.03580246913580247,0,0,0.03580246913580247,48.61975308641975,0)" xlink:href="#by"/></g><g id="Z"><use transform="matrix(0.03580246913580247,0,0,0.03580246913580247,0,0)" xlink:href="#bm"/><use transform="matrix(0.03580246913580247,0,0,0.03580246913580247,7.160493827160494,0)" xlink:href="#bo"/><use transform="matrix(0.03580246913580247,0,0,0.03580246913580247,14.320987654320987,0)" xlink:href="#bp"/></g><g id="aa"><use transform="matrix(0.03580246913580247,0,0,0.03580246913580247,0,0)" xlink:href="#bg"/><use transform="matrix(0.03580246913580247,0,0,0.03580246913580247,7.160493827160494,0)" xlink:href="#bm"/><use transform="matrix(0.03580246913580247,0,0,0.03580246913580247,14.320987654320987,0)" xlink:href="#bw"/><use transform="matrix(0.03580246913580247,0,0,0.03580246913580247,20.76543209876543,0)" xlink:href="#bd"/></g><g id="ab"><use transform="matrix(0.03580246913580247,0,0,0.03580246913580247,0,0)" xlink:href="#br"/><use transform="matrix(0.03580246913580247,0,0,0.03580246913580247,10.704938271604938,0)" xlink:href="#bm"/><use transform="matrix(0.03580246913580247,0,0,0.03580246913580247,17.86543209876543,0)" xlink:href="#bw"/><use transform="matrix(0.03580246913580247,0,0,0.03580246913580247,24.309876543209874,0)" xlink:href="#bd"/><use transform="matrix(0.03580246913580247,0,0,0.03580246913580247,31.470370370370368,0)" xlink:href="#bj"/><use transform="matrix(0.03580246913580247,0,0,0.03580246913580247,34.29876543209876,0)" xlink:href="#bo"/><use transform="matrix(0.03580246913580247,0,0,0.03580246913580247,41.459259259259255,0)" xlink:href="#bg"/></g><path d="M177-190C167-65 218 103 67 71c-23-6-38-20-44-43l32-5c15 47 100 32 89-28v-30C133-14 115 1 83 1 29 1 15-40 15-95c0-56 16-97 71-98 29-1 48 16 59 35 1-10 0-23 2-32h30zM94-22c36 0 50-32 50-73 0-42-14-75-50-75-39 0-46 34-46 75s6 73 46 73" id="bA"/><g id="ac"><use transform="matrix(0.03580246913580247,0,0,0.03580246913580247,0,0)" xlink:href="#bA"/><use transform="matrix(0.03580246913580247,0,0,0.03580246913580247,7.160493827160494,0)" xlink:href="#bs"/><use transform="matrix(0.03580246913580247,0,0,0.03580246913580247,14.320987654320987,0)" xlink:href="#bg"/><use transform="matrix(0.03580246913580247,0,0,0.03580246913580247,21.48148148148148,0)" xlink:href="#bk"/><use transform="matrix(0.03580246913580247,0,0,0.03580246913580247,27.925925925925924,0)" xlink:href="#bu"/></g><path fill="#06c" d="M266 0h-40l-56-210L115 0H75L2-248h35L96-30l15-64 43-154h32l59 218 59-218h35" id="bB"/><path fill="#06c" d="M24-231v-30h32v30H24zM24 0v-190h32V0H24" id="bC"/><path fill="#06c" d="M143 0L79-87 56-68V0H24v-261h32v163l83-92h37l-77 82L181 0h-38" id="bD"/><path fill="#06c" d="M115-194c55 1 70 41 70 98S169 2 115 4C84 4 66-9 55-30l1 105H24l-1-265h31l2 30c10-21 28-34 59-34zm-8 174c40 0 45-34 45-75s-6-73-45-74c-42 0-51 32-51 76 0 43 10 73 51 73" id="bE"/><path fill="#06c" d="M100-194c63 0 86 42 84 106H49c0 40 14 67 53 68 26 1 43-12 49-29l28 8c-11 28-37 45-77 45C44 4 14-33 15-96c1-61 26-98 85-98zm52 81c6-60-76-77-97-28-3 7-6 17-6 28h103" id="bF"/><path fill="#06c" d="M85-194c31 0 48 13 60 33l-1-100h32l1 261h-30c-2-10 0-23-3-31C134-8 116 4 85 4 32 4 16-35 15-94c0-66 23-100 70-100zm9 24c-40 0-46 34-46 75 0 40 6 74 45 74 42 0 51-32 51-76 0-42-9-74-50-73" id="bG"/><path fill="#06c" d="M141-36C126-15 110 5 73 4 37 3 15-17 15-53c-1-64 63-63 125-63 3-35-9-54-41-54-24 1-41 7-42 31l-33-3c5-37 33-52 76-52 45 0 72 20 72 64v82c-1 20 7 32 28 27v20c-31 9-61-2-59-35zM48-53c0 20 12 33 32 33 41-3 63-29 60-74-43 2-92-5-92 41" id="bH"/><g id="ad"><use transform="matrix(0.03580246913580247,0,0,0.03580246913580247,0,0)" xlink:href="#br"/><use transform="matrix(0.03580246913580247,0,0,0.03580246913580247,10.704938271604938,0)" xlink:href="#bm"/><use transform="matrix(0.03580246913580247,0,0,0.03580246913580247,17.86543209876543,0)" xlink:href="#bw"/><use transform="matrix(0.03580246913580247,0,0,0.03580246913580247,24.309876543209874,0)" xlink:href="#bd"/><use transform="matrix(0.03580246913580247,0,0,0.03580246913580247,31.470370370370368,0)" xlink:href="#bj"/><use transform="matrix(0.03580246913580247,0,0,0.03580246913580247,34.29876543209876,0)" xlink:href="#bo"/><use transform="matrix(0.03580246913580247,0,0,0.03580246913580247,41.459259259259255,0)" xlink:href="#bg"/><use transform="matrix(0.03580246913580247,0,0,0.03580246913580247,48.61975308641975,0)" xlink:href="#bz"/><use transform="matrix(0.03580246913580247,0,0,0.03580246913580247,52.199999999999996,0)" xlink:href="#bB"/><use transform="matrix(0.03580246913580247,0,0,0.03580246913580247,64.33703703703704,0)" xlink:href="#bC"/><use transform="matrix(0.03580246913580247,0,0,0.03580246913580247,67.16543209876544,0)" xlink:href="#bD"/><use transform="matrix(0.03580246913580247,0,0,0.03580246913580247,73.60987654320988,0)" xlink:href="#bC"/><use transform="matrix(0.03580246913580247,0,0,0.03580246913580247,76.43827160493828,0)" xlink:href="#bE"/><use transform="matrix(0.03580246913580247,0,0,0.03580246913580247,83.59876543209877,0)" xlink:href="#bF"/><use transform="matrix(0.03580246913580247,0,0,0.03580246913580247,90.75925925925927,0)" xlink:href="#bG"/><use transform="matrix(0.03580246913580247,0,0,0.03580246913580247,97.91975308641976,0)" xlink:href="#bC"/><use transform="matrix(0.03580246913580247,0,0,0.03580246913580247,100.74814814814816,0)" xlink:href="#bH"/><path fill="#06c" d="M51.56.9h57v.93h-57z"/><path fill="#8080ff" d="M51.56.9h57v.93h-57z"/></g></defs></g></svg>